<svg width="20" height="20" viewBox="0 0 20 20" fill="none" xmlns="http://www.w3.org/2000/svg">
<g clip-path="url(#clip0_31_2226)">
<path d="M9.99996 1.66675C14.6025 1.66675 18.3333 5.39758 18.3333 10.0001C18.335 12.188 17.4762 14.2888 15.9424 15.8489C14.4085 17.4091 12.3226 18.3035 10.135 18.3389C7.94737 18.3744 5.83357 17.5481 4.24996 16.0384C2.66634 14.5288 1.73995 12.4569 1.67079 10.2701L1.66663 10.0001L1.66996 9.76675C1.79329 5.27258 5.47496 1.66675 9.99996 1.66675ZM10.0083 12.5001L9.90246 12.5059C9.69992 12.53 9.51325 12.6275 9.3778 12.7801C9.24236 12.9326 9.16755 13.1294 9.16755 13.3334C9.16755 13.5374 9.24236 13.7343 9.3778 13.8868C9.51325 14.0393 9.69992 14.1368 9.90246 14.1609L9.99996 14.1667L10.1058 14.1609C10.3083 14.1368 10.495 14.0393 10.6304 13.8868C10.7659 13.7343 10.8407 13.5374 10.8407 13.3334C10.8407 13.1294 10.7659 12.9326 10.6304 12.7801C10.495 12.6275 10.3083 12.53 10.1058 12.5059L10.0083 12.5001ZM9.99996 5.83341C9.79585 5.83344 9.59884 5.90838 9.44632 6.04401C9.29379 6.17964 9.19634 6.36654 9.17246 6.56925L9.16663 6.66675V10.0001L9.17246 10.0976C9.19655 10.3001 9.29409 10.4868 9.4466 10.6222C9.5991 10.7577 9.79599 10.8325 9.99996 10.8325C10.2039 10.8325 10.4008 10.7577 10.5533 10.6222C10.7058 10.4868 10.8034 10.3001 10.8275 10.0976L10.8333 10.0001V6.66675L10.8275 6.56925C10.8036 6.36654 10.7061 6.17964 10.5536 6.04401C10.4011 5.90838 10.2041 5.83344 9.99996 5.83341Z" fill="#ED5555"/>
</g>
<defs>
<clipPath id="clip0_31_2226">
<rect width="20" height="20" fill="white"/>
</clipPath>
</defs>
</svg>
